<svg width="411" height="377" viewBox="0 0 411 377" fill="none" xmlns="http://www.w3.org/2000/svg">
<path d="M162.167 21.3105L186.397 49.1577L165.014 80.0586L140.784 52.2115L162.167 21.3105Z" fill="url(#paint0_linear_1610_1053)"/>
<path d="M140.781 52.2119L165.011 80.0591L157.681 81.089L133.451 53.2418L140.781 52.2119Z" fill="url(#paint1_linear_1610_1053)"/>
<path d="M133.454 53.2412L157.683 81.0884L95.1176 171.554L70.8877 143.708L133.454 53.2412Z" fill="url(#paint2_linear_1610_1053)"/>
<path d="M214.248 89.6973L238.478 117.544L175.959 208.133L151.729 180.286L214.248 89.6973Z" fill="url(#paint3_linear_1610_1053)"/>
<path d="M70.8877 143.707L95.1176 171.554L132.831 247.925L108.601 220.079L70.8877 143.707Z" fill="url(#paint4_linear_1610_1053)"/>
<path d="M219.148 136.82L243.378 164.667L218.985 168.094L194.756 140.248L219.148 136.82Z" fill="url(#paint5_linear_1610_1053)"/>
<path d="M151.729 180.285L175.959 208.132L185.089 226.639L160.859 198.793L151.729 180.285Z" fill="url(#paint6_linear_1610_1053)"/>
<path d="M160.857 198.793L185.087 226.64L150.847 231.45L126.617 203.604L160.857 198.793Z" fill="url(#paint7_linear_1610_1053)"/>
<path d="M314.536 75.6045L338.766 103.451L238.479 117.542L214.249 89.6958L314.536 75.6045Z" fill="url(#paint8_linear_1610_1053)"/>
<path d="M185.135 285.022L209.365 312.869L74.8358 331.78L50.6064 303.934L185.135 285.022Z" fill="url(#paint9_linear_1610_1053)"/>
<path d="M91.2979 312.175L115.528 340.022L118.287 345.597L94.0578 317.75L91.2979 312.175Z" fill="url(#paint10_linear_1610_1053)"/>
<path d="M224.151 183.928L248.381 211.774L261.256 237.862L237.026 210.014L224.151 183.928Z" fill="url(#paint11_linear_1610_1053)"/>
<path d="M237.028 210.016L261.257 237.863L209.366 312.868L185.136 285.022L237.028 210.016Z" fill="url(#paint12_linear_1610_1053)"/>
<path d="M313.826 0L338.056 27.8466L410.73 175.022L386.5 147.176L313.826 0Z" fill="url(#paint13_linear_1610_1053)"/>
<path d="M386.499 147.178L410.729 175.024L384.785 212.529L360.555 184.683L386.499 147.178Z" fill="url(#paint14_linear_1610_1053)"/>
<path d="M299.278 97.6719L323.508 125.518L374.096 227.982L349.867 200.135L299.278 97.6719Z" fill="url(#paint15_linear_1610_1053)"/>
<path d="M349.868 200.137L374.097 227.983L290.161 349.352L265.932 321.506L349.868 200.137Z" fill="url(#paint16_linear_1610_1053)"/>
<path d="M265.932 321.505L290.162 349.351L96.9125 376.505L72.6826 348.658L265.932 321.505Z" fill="url(#paint17_linear_1610_1053)"/>
<path d="M162.166 21.3105L140.783 52.2115L133.454 53.2414L70.8879 143.708L108.601 220.08L208.897 205.987L224.153 183.928L237.028 210.015L185.136 285.021L50.607 303.932L0 201.48L120.583 27.1536L162.166 21.3105Z" fill="url(#paint18_linear_1610_1053)"/>
<path d="M313.827 0L386.501 147.176L360.557 184.681L347.677 158.594L352.253 151.979L314.536 75.6043L214.248 89.6955L151.73 180.284L160.859 198.792L126.618 203.603L95.3418 140.266L179.286 18.9044L313.827 0Z" fill="url(#paint19_linear_1610_1053)"/>
<path d="M299.279 97.6719L349.867 200.135L265.931 321.504L72.6817 348.658L57.0439 316.987L91.2975 312.174L94.0575 317.749L194.34 303.659L256.904 213.177L219.145 136.819L194.753 140.247L216.113 109.357L299.279 97.6719Z" fill="url(#paint20_linear_1610_1053)"/>
<defs>
<linearGradient id="paint0_linear_1610_1053" x1="140.784" y1="50.6846" x2="186.397" y2="50.6846" gradientUnits="userSpaceOnUse">
<stop stop-color="#72D19F"/>
<stop offset="1" stop-color="#005CAE"/>
</linearGradient>
<linearGradient id="paint1_linear_1610_1053" x1="133.451" y1="66.6505" x2="165.01" y2="66.6505" gradientUnits="userSpaceOnUse">
<stop stop-color="#72D19F"/>
<stop offset="1" stop-color="#005CAE"/>
</linearGradient>
<linearGradient id="paint2_linear_1610_1053" x1="70.8878" y1="112.398" x2="157.683" y2="112.398" gradientUnits="userSpaceOnUse">
<stop stop-color="#72D19F"/>
<stop offset="1" stop-color="#005CAE"/>
</linearGradient>
<linearGradient id="paint3_linear_1610_1053" x1="151.73" y1="148.915" x2="238.478" y2="148.915" gradientUnits="userSpaceOnUse">
<stop stop-color="#72D19F"/>
<stop offset="1" stop-color="#005CAE"/>
</linearGradient>
<linearGradient id="paint4_linear_1610_1053" x1="70.8878" y1="195.816" x2="132.831" y2="195.816" gradientUnits="userSpaceOnUse">
<stop stop-color="#72D19F"/>
<stop offset="1" stop-color="#005CAE"/>
</linearGradient>
<linearGradient id="paint5_linear_1610_1053" x1="194.756" y1="152.458" x2="243.378" y2="152.458" gradientUnits="userSpaceOnUse">
<stop stop-color="#72D19F"/>
<stop offset="1" stop-color="#005CAE"/>
</linearGradient>
<linearGradient id="paint6_linear_1610_1053" x1="151.73" y1="203.462" x2="185.088" y2="203.462" gradientUnits="userSpaceOnUse">
<stop stop-color="#72D19F"/>
<stop offset="1" stop-color="#005CAE"/>
</linearGradient>
<linearGradient id="paint7_linear_1610_1053" x1="126.617" y1="215.122" x2="185.087" y2="215.122" gradientUnits="userSpaceOnUse">
<stop stop-color="#72D19F"/>
<stop offset="1" stop-color="#005CAE"/>
</linearGradient>
<linearGradient id="paint8_linear_1610_1053" x1="214.249" y1="96.5734" x2="338.766" y2="96.5734" gradientUnits="userSpaceOnUse">
<stop stop-color="#72D19F"/>
<stop offset="1" stop-color="#005CAE"/>
</linearGradient>
<linearGradient id="paint9_linear_1610_1053" x1="50.6063" y1="308.401" x2="209.365" y2="308.401" gradientUnits="userSpaceOnUse">
<stop stop-color="#72D19F"/>
<stop offset="1" stop-color="#005CAE"/>
</linearGradient>
<linearGradient id="paint10_linear_1610_1053" x1="91.2981" y1="328.886" x2="118.287" y2="328.886" gradientUnits="userSpaceOnUse">
<stop stop-color="#72D19F"/>
<stop offset="1" stop-color="#005CAE"/>
</linearGradient>
<linearGradient id="paint11_linear_1610_1053" x1="224.151" y1="210.894" x2="261.256" y2="210.894" gradientUnits="userSpaceOnUse">
<stop stop-color="#72D19F"/>
<stop offset="1" stop-color="#005CAE"/>
</linearGradient>
<linearGradient id="paint12_linear_1610_1053" x1="185.136" y1="261.442" x2="261.258" y2="261.442" gradientUnits="userSpaceOnUse">
<stop stop-color="#72D19F"/>
<stop offset="1" stop-color="#005CAE"/>
</linearGradient>
<linearGradient id="paint13_linear_1610_1053" x1="313.826" y1="87.5112" x2="410.73" y2="87.5112" gradientUnits="userSpaceOnUse">
<stop stop-color="#72D19F"/>
<stop offset="1" stop-color="#005CAE"/>
</linearGradient>
<linearGradient id="paint14_linear_1610_1053" x1="360.555" y1="179.853" x2="410.729" y2="179.853" gradientUnits="userSpaceOnUse">
<stop stop-color="#72D19F"/>
<stop offset="1" stop-color="#005CAE"/>
</linearGradient>
<linearGradient id="paint15_linear_1610_1053" x1="299.278" y1="162.827" x2="374.096" y2="162.827" gradientUnits="userSpaceOnUse">
<stop stop-color="#72D19F"/>
<stop offset="1" stop-color="#005CAE"/>
</linearGradient>
<linearGradient id="paint16_linear_1610_1053" x1="265.931" y1="274.745" x2="374.097" y2="274.745" gradientUnits="userSpaceOnUse">
<stop stop-color="#72D19F"/>
<stop offset="1" stop-color="#005CAE"/>
</linearGradient>
<linearGradient id="paint17_linear_1610_1053" x1="72.6828" y1="349.005" x2="290.162" y2="349.005" gradientUnits="userSpaceOnUse">
<stop stop-color="#72D19F"/>
<stop offset="1" stop-color="#005CAE"/>
</linearGradient>
<linearGradient id="paint18_linear_1610_1053" x1="0" y1="162.621" x2="237.028" y2="162.621" gradientUnits="userSpaceOnUse">
<stop stop-color="#9DF75A"/>
<stop offset="0.5362" stop-color="#57CCA5"/>
<stop offset="1" stop-color="#02FFAC"/>
</linearGradient>
<linearGradient id="paint19_linear_1610_1053" x1="95.3417" y1="101.801" x2="386.501" y2="101.801" gradientUnits="userSpaceOnUse">
<stop stop-color="#9DF75A"/>
<stop offset="0.5362" stop-color="#57CCA5"/>
<stop offset="1" stop-color="#02FFAC"/>
</linearGradient>
<linearGradient id="paint20_linear_1610_1053" x1="57.0438" y1="223.165" x2="349.867" y2="223.165" gradientUnits="userSpaceOnUse">
<stop stop-color="#9DF75A"/>
<stop offset="0.5362" stop-color="#57CCA5"/>
<stop offset="1" stop-color="#02FFAC"/>
</linearGradient>
</defs>
</svg>
